<?xml version="1.0" standalone="no"?>
<!DOCTYPE svg PUBLIC "-//W3C//DTD SVG 20010904//EN"
 "http://www.w3.org/TR/2001/REC-SVG-20010904/DTD/svg10.dtd">
<svg version="1.0" xmlns="http://www.w3.org/2000/svg"
 width="656.000000pt" height="656.000000pt" viewBox="0 0 656.000000 656.000000"
 preserveAspectRatio="xMidYMid meet">
<metadata>
Created by potrace 1.11, written by Peter Selinger 2001-2013
</metadata>
<g transform="translate(0.000000,656.000000) scale(0.100000,-0.100000)"
fill="#000000" stroke="none">
<path d="M3247 6505 c-26 -14 -408 -242 -850 -507 -441 -264 -818 -490 -838
-502 -35 -20 -429 -257 -507 -304 -20 -12 -44 -25 -52 -29 -8 -3 -33 -18 -55
-32 -60 -38 -76 -49 -115 -71 -19 -11 -53 -31 -75 -45 -22 -14 -48 -28 -57
-31 -10 -4 -18 -10 -18 -14 0 -5 -10 -12 -22 -16 -25 -8 -86 -50 -106 -74 -25
-31 -43 -86 -41 -130 5 -87 31 -120 157 -198 45 -29 85 -52 88 -52 2 0 35 -20
72 -43 62 -40 425 -262 690 -422 61 -37 112 -72 112 -76 0 -5 -25 -49 -56 -97
-123 -189 -188 -291 -239 -372 -30 -47 -58 -89 -63 -95 -4 -5 -36 -55 -71
-110 -34 -55 -93 -147 -131 -205 -37 -58 -103 -161 -147 -229 -43 -69 -84
-130 -91 -138 -7 -7 -11 -13 -9 -13 4 0 -79 -132 -133 -210 -60 -89 -162 -249
-166 -262 -4 -10 -10 -18 -15 -18 -5 0 -9 -5 -9 -11 0 -5 -19 -38 -42 -72 -51
-75 -76 -141 -71 -185 6 -46 28 -94 55 -118 20 -19 395 -254 404 -254 2 0 53
-31 114 -70 61 -38 112 -70 114 -70 3 0 87 -51 188 -113 100 -62 228 -140 283
-172 55 -33 102 -62 105 -65 3 -3 66 -42 140 -86 74 -45 218 -132 320 -194
102 -62 223 -136 270 -164 47 -28 87 -53 90 -56 3 -3 16 -11 30 -19 37 -21
325 -196 480 -291 155 -96 215 -128 249 -133 43 -7 125 14 174 44 26 16 49 29
52 29 2 0 28 14 57 31 59 36 102 60 168 97 25 14 74 42 109 64 34 21 65 38 68
38 3 0 31 15 62 34 31 19 72 43 91 54 19 10 238 135 485 277 690 395 1335 765
1385 793 25 13 56 33 70 42 14 10 28 18 32 19 15 3 72 37 112 66 47 35 76 88
78 143 4 107 -28 143 -237 262 -16 9 -84 50 -150 90 -66 40 -133 81 -150 90
-115 67 -272 161 -282 170 -7 5 -17 10 -23 10 -5 0 -10 5 -10 10 0 6 -4 10
-10 10 -5 0 -74 39 -154 88 -80 48 -155 92 -166 98 -11 6 -23 14 -26 17 -6 6
25 65 79 149 19 29 60 96 92 148 32 52 72 118 90 145 17 28 78 127 135 220 57
94 107 172 110 175 4 3 9 12 12 20 6 17 112 189 128 207 5 7 10 14 10 17 0 3
39 67 86 143 121 193 123 196 131 213 4 8 11 20 15 25 15 18 53 79 73 118 11
20 23 37 27 37 5 0 8 4 8 9 0 5 44 80 97 166 53 87 102 174 109 193 25 75 -7
170 -73 214 -47 32 -253 158 -259 158 -2 0 -30 17 -61 37 -32 21 -69 44 -83
51 -14 7 -34 18 -45 25 -11 7 -54 32 -95 57 -41 25 -76 48 -78 52 -2 5 -8 8
-13 8 -5 0 -140 79 -300 175 -160 96 -295 175 -300 175 -5 0 -9 5 -9 10 0 6
-4 10 -8 10 -7 0 -363 208 -388 227 -10 8 -44 28 -79 48 -11 6 -39 23 -62 38
-24 15 -47 27 -53 27 -5 0 -10 3 -10 8 0 4 -15 13 -32 21 -18 8 -35 17 -38 20
-3 4 -140 87 -305 185 -165 98 -311 186 -325 195 -151 97 -217 111 -303 66z
m213 -460 c33 -22 473 -285 515 -309 11 -6 80 -47 153 -91 73 -44 140 -85 150
-90 9 -6 152 -91 317 -190 165 -99 308 -184 318 -190 10 -5 149 -89 309 -185
160 -96 309 -186 332 -199 22 -13 43 -25 45 -27 6 -6 -43 -43 -56 -44 -7 0
-13 -4 -13 -10 0 -5 -4 -10 -9 -10 -5 0 -140 -79 -300 -175 -160 -96 -295
-175 -300 -175 -5 0 -11 -3 -13 -7 -3 -8 -324 -203 -334 -203 -2 0 -10 -5 -17
-10 -10 -9 -407 -249 -512 -310 -16 -10 -184 -110 -373 -224 -189 -113 -348
-206 -353 -206 -6 0 -37 18 -70 40 -33 22 -63 40 -66 40 -3 0 -30 16 -59 35
-29 19 -57 35 -63 35 -6 0 -11 4 -11 9 0 5 -10 13 -22 16 -13 4 -32 15 -43 25
-11 10 -24 19 -30 21 -12 5 -151 88 -215 130 -25 16 -56 34 -70 41 -14 7 -27
15 -30 18 -3 3 -16 12 -30 19 -14 8 -124 75 -245 149 -121 74 -276 168 -345
210 -69 41 -142 86 -164 100 -47 32 -68 45 -123 73 -24 11 -43 25 -43 30 0 5
-4 9 -9 9 -8 0 -196 111 -216 128 -5 4 -17 11 -25 15 -8 3 -80 47 -160 97 -80
49 -160 98 -178 108 l-33 18 48 27 c26 16 81 48 121 72 41 25 78 45 83 45 5 0
9 5 9 10 0 6 7 10 15 10 8 0 15 5 15 10 0 6 4 10 9 10 10 0 133 70 141 81 3 3
15 9 28 13 12 4 22 12 22 17 0 5 4 9 10 9 5 0 40 19 77 42 38 23 77 46 88 52
30 17 1265 755 1305 781 87 55 242 145 250 145 6 0 10 3 10 8 0 4 10 12 23 17
23 11 27 9 137 -60z m1857 -2007 c-78 -127 -134 -217 -228 -368 -5 -8 -58 -96
-119 -195 -61 -99 -114 -187 -119 -195 -6 -8 -81 -130 -167 -270 -87 -140
-174 -282 -195 -315 -301 -487 -405 -657 -427 -695 -14 -25 -28 -47 -32 -50
-3 -3 -21 -32 -40 -65 -19 -33 -36 -62 -39 -65 -3 -3 -12 -16 -20 -30 -34 -59
-311 -506 -320 -517 -6 -7 -11 -14 -11 -17 0 -2 -41 -71 -91 -153 -51 -81 -99
-160 -108 -175 -26 -44 -122 -198 -168 -270 l-43 -68 -57 36 c-32 20 -69 44
-83 52 -14 9 -27 17 -30 17 -3 0 -25 14 -50 30 -25 15 -137 85 -250 153 -113
69 -283 173 -378 231 -95 58 -192 117 -215 130 -23 13 -60 36 -82 50 -22 14
-49 31 -60 37 -30 16 -382 232 -440 268 -27 18 -57 35 -65 39 -8 4 -55 32
-105 63 -49 31 -106 65 -125 76 -19 11 -47 29 -62 39 -14 11 -30 19 -35 19 -6
0 -18 9 -28 20 -9 10 -20 18 -24 17 -3 -1 -17 6 -31 15 -96 61 -142 88 -150
88 -6 0 -10 5 -10 10 0 6 -6 10 -12 10 -7 0 -21 7 -31 14 -24 19 -30 7 189
341 32 50 61 95 64 100 3 6 52 84 110 173 58 89 117 181 132 205 15 23 31 49
35 57 4 8 12 20 17 27 9 9 267 408 316 489 8 13 54 85 103 159 48 74 87 137
87 140 0 3 12 18 26 34 l26 30 80 -50 c44 -27 83 -49 88 -49 5 0 10 -3 12 -8
2 -4 37 -27 78 -52 41 -25 77 -48 78 -52 2 -5 9 -8 15 -8 7 0 39 -17 72 -39
33 -21 125 -78 205 -126 80 -48 161 -98 180 -110 19 -13 105 -64 190 -116 85
-51 166 -100 180 -109 103 -70 179 -86 247 -53 58 29 138 76 141 85 2 4 8 8
12 8 5 0 64 33 132 74 68 41 127 74 132 74 5 0 12 4 15 9 3 5 119 77 256 159
138 81 252 151 255 154 3 4 12 9 20 12 8 4 247 146 530 317 283 170 516 310
517 310 2 1 -39 -68 -90 -151z m-482 -1696 c33 -21 67 -41 75 -45 8 -4 167
-99 353 -211 326 -197 338 -205 315 -219 -53 -32 -150 -87 -153 -87 -3 0 -50
-27 -105 -60 -55 -33 -102 -60 -104 -60 -2 0 -65 -36 -141 -80 -76 -44 -139
-80 -142 -80 -2 0 -29 -16 -59 -35 -30 -19 -56 -35 -58 -35 -2 0 -55 -30 -117
-66 -63 -36 -143 -82 -179 -101 -36 -20 -72 -42 -81 -49 -8 -8 -19 -14 -23
-14 -3 0 -72 -38 -152 -85 -81 -47 -148 -85 -149 -85 -2 0 -49 -27 -105 -60
-56 -33 -104 -60 -106 -60 -3 0 -22 -11 -42 -25 -20 -14 -40 -25 -44 -25 -7 0
131 232 173 292 11 14 19 29 19 33 0 3 11 21 25 39 14 18 25 38 25 44 0 6 3
12 8 14 4 2 14 15 22 31 37 67 215 352 222 355 4 2 8 7 8 12 0 4 29 54 64 111
103 166 189 307 211 343 11 19 45 73 75 122 30 49 58 97 62 106 11 27 37 22
103 -20z"/>
</g>
</svg>
